<svg style="max-height: 500px" xmlns="http://www.w3.org/2000/svg" xmlns:xlink="http://www.w3.org/1999/xlink" viewBox="56.78404656 138.3810040632054 286.82719999999995 128.0288939051919" width="286.82719999999995" height="128.0288939051919"><defs><radialGradient id="gradient-4" cx="10%" cy="20%" r="100%" fx="10%" fy="20%">       <stop offset="0%" stop-color="rgba(14, 174, 87, 1)"/>       <stop offset="90%" stop-color="rgba(12, 116, 117, 1)"/>     </radialGradient></defs>
<rect data-name="background" width="100%" height="100%" fill="#f3f5f5"/><g data-name="icon" fill="url(#gradient-4)" transform="translate(145.41007226187043,124.40297530364958) scale(1.091853825530814)">
    
 <path d="m47.902 68.852c-0.21484-0.023437-0.4375-0.035156-0.66406-0.035156-0.66016 0-1.293 0.10547-1.8789 0.30469-0.59766 0.19922-1.1523 0.49219-1.6445 0.86328-0.10938 0.09375-0.24609 0.16016-0.39844 0.1875-0.46875 0.085937-0.91406-0.22266-1-0.69141-0.31641-1.707-1.2344-3.207-2.5234-4.2773-1.2656-1.0508-2.8906-1.6797-4.6641-1.6797-1.5742 0-3.0312 0.49609-4.2227 1.3398-1.2188 0.86328-2.1602 2.0898-2.668 3.5195-0.085937 0.28516-0.32031 0.51563-0.63281 0.58984-1.25 0.28906-2.3477 0.98047-3.1445 1.9297-0.77734 0.92188-1.2734 2.0898-1.3594 3.3711v0.003906c0 0.47656-0.38672 0.86328-0.86328 0.86328h-3.4102c-1.7188 0-3.2773 0.70312-4.4102 1.8359-1.1328 1.1328-1.8359 2.6953-1.8359 4.4102 0 0.23438 0.011719 0.45312 0.03125 0.66016l0.003907 0.019531h-5.6758c-0.47656 0-0.86328 0.38672-0.86328 0.86328 0 0.47656 0.38672 0.86328 0.86328 0.86328h86.113c0.47656 0 0.86328-0.38672 0.86328-0.86328 0-0.47656-0.38672-0.86328-0.86328-0.86328h-7.7891c0.023437-0.21484 0.035156-0.44141 0.035156-0.68359 0-1.7188-0.70312-3.2773-1.8359-4.4102-1.1328-1.1328-2.6953-1.8359-4.4102-1.8359h-1.2695v-0.003907c-0.44922 0-0.82812-0.35156-0.85938-0.80859-0.097656-1.543-0.78906-2.9258-1.8516-3.9219-1.0508-0.98438-2.4688-1.5898-4.0273-1.5898-0.66406 0-1.293 0.10547-1.8789 0.30469-0.59766 0.19922-1.1523 0.49219-1.6445 0.86328-0.10938 0.09375-0.24609 0.16016-0.39844 0.1875-0.46875 0.085937-0.91406-0.22266-1-0.69141-0.31641-1.6875-1.2109-3.1758-2.4727-4.2383-0.015625-0.011719-0.03125-0.023437-0.046875-0.035156-1.2656-1.0508-2.8906-1.6797-4.6641-1.6797-1.5742 0-3.0312 0.49609-4.2227 1.3398-1.2188 0.86328-2.1602 2.0898-2.668 3.5195-0.085937 0.28516-0.32031 0.51563-0.63281 0.58984-1.25 0.28906-2.3477 0.98047-3.1445 1.9297-0.77734 0.92188-1.2734 2.0898-1.3594 3.3711v0.003906c0 0.47656-0.38672 0.86328-0.86328 0.86328h-3.4102c-1.7188 0-3.2773 0.70312-4.4102 1.8359-1.1328 1.1328-1.8359 2.6953-1.8359 4.4102 0 0.24219 0.011719 0.46875 0.035157 0.68359h-1.7305c-0.019531-0.23047-0.03125-0.46094-0.03125-0.68359 0-2.1914 0.89844-4.1875 2.3398-5.6328 1.4453-1.4453 3.4375-2.3398 5.6328-2.3398h2.6445c0.23047-1.3633 0.82031-2.6055 1.6758-3.6172 0.28516-0.33984 0.60156-0.65625 0.94531-0.94141zm-13.348-8.7773c0.0625 0.5625 0.10937 1.1406 0.14062 1.7305 0.14453-0.007813 0.28906-0.011719 0.43359-0.011719 0.78516 0 1.5469 0.10156 2.2734 0.28906 2.543-0.20312 4.707-1.4609 6.4922-3.6992 1.7344-2.1797 3.1172-5.2773 4.1484-9.2383-3.0938 0.22266-5.7188 0.96875-7.8789 2.5-2.3906 1.6953-4.2539 4.3828-5.6094 8.4297zm-3.1133-5.582c-0.007812-0.015626-0.011718-0.03125-0.019531-0.046876-0.085937-0.20312-0.17578-0.40625-0.26562-0.60547-0.55469-3.1758-0.57422-5.7188-0.21094-7.9648 0.38281-2.3867 1.1953-4.4688 2.2383-6.6367 0.92578-1.9336 0.75391-5.5117-0.63672-7.4297-1.3984 1.7109-2.0898 3.2812-2.0703 4.7148 0.011719 0.89062 0.30078 1.75 0.875 2.5781-0.96875 2.0898-1.7227 4.1484-2.0977 6.5039-0.24219 1.5-0.32812 3.1133-0.21875 4.9219-1.4258-1.6367-3.2383-2.9023-5.4336-3.7891-0.16406 4.8203 0.52344 8.4727 2.0547 10.992 1.5391 2.5352 3.9883 3.9375 7.3438 4.2578-0.03125-0.63672-0.085938-1.2578-0.15234-1.8594-0.007812-0.03125-0.007812-0.0625-0.011718-0.097656-0.24609-2.0625-0.70703-3.9102-1.3789-5.543zm7.3125-17.973c-0.035156 0.003907-0.066406 0.007813-0.10156 0.011719-0.73438 0.078125-1.3789 0.26953-1.9375 0.57031-0.71484 0.38281-1.3008 0.96094-1.7539 1.7344-0.17969 0.54297-0.40625 1.0859-0.68359 1.6172-0.019532 0.066406-0.039063 0.13672-0.058594 0.20703 0.003906 0.007813 0.007812 0.019532 0.007812 0.027344 1.7227 0.10547 3.3164-0.29297 4.6328-1 1.3672-0.73438 2.4219-1.7852 2.9922-2.9297-1.1602-0.24219-2.1953-0.31641-3.0977-0.23437zm-3.6406-3.5234c0.22656 0.78906 0.35156 1.6406 0.35938 2.5195v0.32031c0.13672-0.089844 0.28125-0.17578 0.42969-0.25391 0.66406-0.35547 1.4062-0.59766 2.2305-0.71875 0.28125-0.46484 0.42578-1.0312 0.4375-1.6914 0.011719-0.72266-0.13281-1.5586-0.42969-2.5117-0.55078 0.11719-1.0547 0.33594-1.5117 0.65625-0.56641 0.39844-1.0703 0.95703-1.5117 1.6836zm45.547 7.9336-3.0117 5.043c-0.48828 0.82031-1.2695 1.3633-2.1289 1.582-0.85938 0.21484-1.8008 0.10547-2.6211-0.38281l-0.003907-0.003906c-0.82031-0.48828-1.3633-1.2695-1.582-2.1289-0.21484-0.85937-0.10547-1.8008 0.38281-2.6172l3.0117-5.0469-1.7227-1.0273c-0.55859-0.33203-1.1406-0.53125-1.7344-0.59766s-1.207 0.003906-1.8281 0.20703c-0.61719 0.20312-1.1484 0.51172-1.5898 0.91406-0.4375 0.40234-0.78516 0.91016-1.0391 1.5117l-6.8281 16.25c-0.16797 0.40234-0.17969 0.82813-0.054688 1.2109s0.38672 0.71875 0.75781 0.94141l9.5508 5.7031c0.37109 0.22266 0.79297 0.28906 1.1914 0.21875 0.39844-0.070312 0.76953-0.28125 1.0391-0.61719l11.07-13.719c0.41016-0.51172 0.69141-1.0586 0.83984-1.6328 0.14453-0.56641 0.16406-1.1719 0.054687-1.8086l-0.003906-0.027344c-0.11328-0.64453-0.34375-1.2188-0.68359-1.7031-0.33984-0.49219-0.79297-0.90625-1.3516-1.2422l-1.7188-1.0273zm12.156-21.805c-0.24219-0.96094-0.84766-1.8281-1.7578-2.3711-0.91016-0.54297-1.9609-0.66406-2.9219-0.42188-0.96094 0.24219-1.8281 0.84766-2.3711 1.7578l-5.4414 9.1094c-0.1875 0.31641-0.23047 0.68359-0.14453 1.0195 0.085937 0.33594 0.29687 0.63672 0.60937 0.82422l4.3164 2.5781c0.015625 0.007812 0.027343 0.015625 0.042969 0.023437h0.003906l0.003906 0.003907c0.30469 0.16406 0.65234 0.19922 0.97266 0.11719 0.33594-0.085937 0.63672-0.29688 0.82812-0.61328l5.4414-9.1094c0.54297-0.91016 0.66406-1.9609 0.42187-2.9219zm-9.2461 13.578-3.9414 6.6016v0.003906l-3.4492 5.7773c-0.24609 0.41016-0.63672 0.68359-1.0742 0.79297-0.42188 0.10547-0.875 0.058594-1.2734-0.16016-0.03125-0.023438-0.0625-0.039062-0.097656-0.058594-0.38281-0.24609-0.64062-0.625-0.74609-1.043-0.10547-0.42188-0.058593-0.875 0.16016-1.2734 0.023437-0.035156 0.046874-0.070312 0.0625-0.10938l3.4141-5.7148 0.007812-0.007812 3.9414-6.5977 3 1.793z" fill-rule="evenodd"/>

    </g><g data-name="business_name" fill="#707c8b" transform="translate(56.84176592592593,223.1530340740741) scale(0.7152323950617284)"><path d="M30.390625,47.96875l-5.5859375,0l0-20q0-0.5859375-0.224609375-1.09375t-0.60546875-0.888671875t-0.888671875-0.595703125t-1.09375-0.21484375t-1.09375,0.21484375t-0.888671875,0.595703125t-0.595703125,0.888671875t-0.21484375,1.09375l0,20l-5.60546875,0l0-20q0-0.5859375-0.21484375-1.09375t-0.595703125-0.888671875t-0.888671875-0.595703125t-1.09375-0.21484375t-1.09375,0.21484375t-0.888671875,0.595703125t-0.595703125,0.888671875t-0.21484375,1.09375l0,20l-5.60546875,0l0-20q0-1.73828125,0.654296875-3.271484375t1.796875-2.67578125t2.67578125-1.796875t3.271484375-0.654296875q1.5625,0,3.0078125,0.556640625t2.59765625,1.611328125q1.15234375-1.0546875,2.587890625-1.611328125t2.998046875-0.556640625q1.73828125,0,3.271484375,0.654296875t2.67578125,1.796875t1.796875,2.67578125t0.654296875,3.271484375l0,20z M43.14453125,42.8515625q0.3125,0.09765625,0.625,0.126953125t0.625,0.029296875q0.78125,0,1.50390625-0.21484375t1.357421875-0.615234375t1.1328125-0.9765625t0.810546875-1.279296875l3.90625,3.92578125q-0.7421875,1.0546875-1.708984375,1.89453125t-2.08984375,1.42578125t-2.36328125,0.888671875t-2.548828125,0.302734375q-2.20703125,0-4.150390625-0.8203125t-3.3984375-2.28515625t-2.294921875-3.486328125t-0.83984375-4.443359375q0-2.48046875,0.83984375-4.53125t2.294921875-3.49609375t3.3984375-2.24609375t4.150390625-0.80078125q1.30859375,0,2.55859375,0.3125t2.373046875,0.8984375t2.099609375,1.435546875t1.71875,1.904296875z M45.87890625,31.85546875q-0.37109375-0.13671875-0.732421875-0.17578125t-0.751953125-0.0390625q-1.09375,0-2.060546875,0.400390625t-1.6796875,1.142578125t-1.123046875,1.787109375t-0.41015625,2.353515625q0,0.29296875,0.029296875,0.6640625t0.09765625,0.751953125t0.166015625,0.732421875t0.25390625,0.625z M66.30859375,47.96875q-1.93359375,0-3.6328125-0.732421875t-2.978515625-2.01171875t-2.01171875-2.978515625t-0.732421875-3.6328125l0-6.2109375l-2.59765625,0l0-5.3125l2.59765625,0l0-8.359375l5.3125,0l0,8.359375l8.0859375,0l0,5.3125l-8.0859375,0l0,6.2109375q0,0.83984375,0.3125,1.572265625t0.859375,1.279296875t1.2890625,0.869140625t1.58203125,0.322265625l4.04296875,0l0,5.3125l-4.04296875,0z M93.59375,47.96875l-1.2890625,0l-2.0703125-2.87109375q-0.76171875,0.68359375-1.611328125,1.279296875t-1.787109375,1.03515625t-1.923828125,0.693359375t-2.001953125,0.25390625q-2.20703125,0-4.150390625-0.7421875t-3.3984375-2.158203125t-2.294921875-3.466796875t-0.83984375-4.66796875q0-2.44140625,0.83984375-4.482421875t2.294921875-3.505859375t3.3984375-2.275390625t4.150390625-0.810546875q1.015625,0,2.01171875,0.25390625t1.93359375,0.703125t1.787109375,1.0546875t1.591796875,1.30859375l2.0703125-2.48046875l1.2890625,0l0,20.87890625z M88.22265625,37.32421875q0-1.09375-0.419921875-2.119140625t-1.142578125-1.81640625t-1.689453125-1.26953125t-2.060546875-0.478515625t-2.060546875,0.37109375t-1.6796875,1.09375t-1.123046875,1.787109375t-0.41015625,2.431640625t0.41015625,2.431640625t1.123046875,1.787109375t1.6796875,1.09375t2.060546875,0.37109375t2.060546875-0.478515625t1.689453125-1.26953125t1.142578125-1.81640625t0.419921875-2.119140625z  M131.69921875,45.13671875q-1.953125,1.66015625-4.35546875,2.548828125t-5,0.888671875q-1.9921875,0-3.837890625-0.517578125t-3.447265625-1.46484375t-2.9296875-2.265625t-2.265625-2.9296875t-1.455078125-3.466796875t-0.517578125-3.84765625t0.517578125-3.828125t1.455078125-3.447265625t2.265625-2.9296875t2.9296875-2.255859375t3.447265625-1.455078125t3.837890625-0.517578125q2.59765625,0,5,0.888671875t4.35546875,2.548828125l-2.9296875,4.8828125q-1.26953125-1.2890625-2.9296875-2.021484375t-3.49609375-0.732421875t-3.447265625,0.703125t-2.822265625,1.904296875t-1.9140625,2.8125t-0.703125,3.447265625q0,1.85546875,0.703125,3.4765625t1.9140625,2.83203125t2.822265625,1.9140625t3.447265625,0.703125q1.0546875,0,2.05078125-0.25390625t1.89453125-0.703125l0-7.96875l5.41015625,0l0,11.0546875z M140.78125,47.96875l-5.33203125,0l0-20.91796875l1.2890625,0l1.7578125,2.48046875q1.2890625-1.171875,2.9296875-1.806640625t3.3984375-0.634765625l4.70703125,0l0,5.3125l-4.70703125,0q-0.83984375,0-1.58203125,0.3125t-1.2890625,0.859375t-0.859375,1.2890625t-0.3125,1.58203125l0,11.5234375z M160.33203125,42.8515625q0.3125,0.09765625,0.625,0.126953125t0.625,0.029296875q0.78125,0,1.50390625-0.21484375t1.357421875-0.615234375t1.1328125-0.9765625t0.810546875-1.279296875l3.90625,3.92578125q-0.7421875,1.0546875-1.708984375,1.89453125t-2.08984375,1.42578125t-2.36328125,0.888671875t-2.548828125,0.302734375q-2.20703125,0-4.150390625-0.8203125t-3.3984375-2.28515625t-2.294921875-3.486328125t-0.83984375-4.443359375q0-2.48046875,0.83984375-4.53125t2.294921875-3.49609375t3.3984375-2.24609375t4.150390625-0.80078125q1.30859375,0,2.55859375,0.3125t2.373046875,0.8984375t2.099609375,1.435546875t1.71875,1.904296875z M163.06640625,31.85546875q-0.37109375-0.13671875-0.732421875-0.17578125t-0.751953125-0.0390625q-1.09375,0-2.060546875,0.400390625t-1.6796875,1.142578125t-1.123046875,1.787109375t-0.41015625,2.353515625q0,0.29296875,0.029296875,0.6640625t0.09765625,0.751953125t0.166015625,0.732421875t0.25390625,0.625z M181.328125,42.8515625q0.3125,0.09765625,0.625,0.126953125t0.625,0.029296875q0.78125,0,1.50390625-0.21484375t1.357421875-0.615234375t1.1328125-0.9765625t0.810546875-1.279296875l3.90625,3.92578125q-0.7421875,1.0546875-1.708984375,1.89453125t-2.08984375,1.42578125t-2.36328125,0.888671875t-2.548828125,0.302734375q-2.20703125,0-4.150390625-0.8203125t-3.3984375-2.28515625t-2.294921875-3.486328125t-0.83984375-4.443359375q0-2.48046875,0.83984375-4.53125t2.294921875-3.49609375t3.3984375-2.24609375t4.150390625-0.80078125q1.30859375,0,2.55859375,0.3125t2.373046875,0.8984375t2.099609375,1.435546875t1.71875,1.904296875z M184.0625,31.85546875q-0.37109375-0.13671875-0.732421875-0.17578125t-0.751953125-0.0390625q-1.09375,0-2.060546875,0.400390625t-1.6796875,1.142578125t-1.123046875,1.787109375t-0.41015625,2.353515625q0,0.29296875,0.029296875,0.6640625t0.09765625,0.751953125t0.166015625,0.732421875t0.25390625,0.625z M199.3359375,47.96875l-5.33203125,0l0-20.91796875l1.2890625,0l1.7578125,2.03125q1.2890625-1.171875,2.919921875-1.806640625t3.408203125-0.634765625q1.9140625,0,3.61328125,0.732421875t2.96875,2.01171875t2.001953125,2.98828125t0.732421875,3.642578125l0,11.953125l-5.33203125,0l0-11.953125q0-0.8203125-0.3125-1.552734375t-0.859375-1.279296875t-1.26953125-0.859375t-1.54296875-0.3125q-0.83984375,0-1.58203125,0.3125t-1.2890625,0.859375t-0.859375,1.279296875t-0.3125,1.552734375l0,11.953125z  M226.6015625,28.359375q0-1.73828125,0.6640625-3.26171875t1.806640625-2.666015625t2.666015625-1.806640625t3.26171875-0.6640625l12.8515625,0l0,5.60546875l-12.8515625,0q-0.5859375,0-1.09375,0.21484375t-0.888671875,0.595703125t-0.595703125,0.888671875t-0.21484375,1.09375t0.21484375,1.103515625t0.595703125,0.8984375t0.888671875,0.595703125t1.09375,0.21484375l5.60546875,0q1.73828125,0,3.271484375,0.654296875t2.67578125,1.796875t1.796875,2.67578125t0.654296875,3.271484375t-0.654296875,3.26171875t-1.796875,2.666015625t-2.67578125,1.806640625t-3.271484375,0.6640625l-12.44140625,0l0-5.60546875l12.44140625,0q0.5859375,0,1.09375-0.21484375t0.888671875-0.595703125t0.595703125-0.888671875t0.21484375-1.09375t-0.21484375-1.09375t-0.595703125-0.888671875t-0.888671875-0.595703125t-1.09375-0.21484375l-5.60546875,0q-1.73828125,0-3.26171875-0.6640625t-2.666015625-1.806640625t-1.806640625-2.67578125t-0.6640625-3.271484375z M272.32421875,37.32421875q0,2.34375-0.83984375,4.365234375t-2.28515625,3.49609375t-3.388671875,2.32421875t-4.169921875,0.849609375q-2.20703125,0-4.150390625-0.849609375t-3.3984375-2.32421875t-2.294921875-3.49609375t-0.83984375-4.365234375q0-2.3828125,0.83984375-4.4140625t2.294921875-3.505859375t3.3984375-2.314453125t4.150390625-0.83984375q2.2265625,0,4.169921875,0.791015625t3.388671875,2.24609375t2.28515625,3.49609375t0.83984375,4.541015625z M266.953125,37.32421875q0-1.2890625-0.419921875-2.333984375t-1.142578125-1.796875t-1.689453125-1.15234375t-2.060546875-0.400390625t-2.060546875,0.400390625t-1.6796875,1.15234375t-1.123046875,1.796875t-0.41015625,2.333984375q0,1.2109375,0.41015625,2.24609375t1.123046875,1.796875t1.6796875,1.201171875t2.060546875,0.439453125t2.060546875-0.41015625t1.689453125-1.15234375t1.142578125-1.796875t0.419921875-2.32421875z M280.64453125,47.96875l-5.37109375,0l0-29.23828125l5.37109375,0l0,29.23828125z M300.078125,45.52734375q-0.64453125,0.5859375-1.376953125,1.103515625t-1.533203125,0.8984375t-1.650390625,0.60546875t-1.728515625,0.224609375q-1.93359375,0-3.6328125-0.68359375t-2.978515625-1.943359375t-2.01171875-3.06640625t-0.732421875-4.052734375l0-11.5625l5.3125,0l0,11.5625q0,1.0546875,0.322265625,1.884765625t0.869140625,1.396484375t1.279296875,0.859375t1.572265625,0.29296875q0.8203125,0,1.552734375-0.380859375t1.279296875-1.005859375t0.859375-1.416015625t0.3125-1.630859375l0-11.5625l5.33203125,0l0,20.91796875l-1.2890625,0z M317.67578125,47.96875q-1.93359375,0-3.6328125-0.732421875t-2.978515625-2.01171875t-2.01171875-2.978515625t-0.732421875-3.6328125l0-6.2109375l-2.59765625,0l0-5.3125l2.59765625,0l0-8.359375l5.3125,0l0,8.359375l8.0859375,0l0,5.3125l-8.0859375,0l0,6.2109375q0,0.83984375,0.3125,1.572265625t0.859375,1.279296875t1.2890625,0.869140625t1.58203125,0.322265625l4.04296875,0l0,5.3125l-4.04296875,0z M330.99609375,21.3671875q0,0.7421875-0.283203125,1.38671875t-0.771484375,1.123046875t-1.142578125,0.76171875t-1.396484375,0.283203125t-1.396484375-0.283203125t-1.1328125-0.76171875t-0.76171875-1.123046875t-0.283203125-1.38671875q0-0.72265625,0.283203125-1.376953125t0.76171875-1.1328125t1.1328125-0.76171875t1.396484375-0.283203125t1.396484375,0.283203125t1.142578125,0.76171875t0.771484375,1.1328125t0.283203125,1.376953125z M330.078125,47.96875l-5.37109375,0l0-20.91796875l5.37109375,0l0,20.91796875z M354.35546875,37.32421875q0,2.34375-0.83984375,4.365234375t-2.28515625,3.49609375t-3.388671875,2.32421875t-4.169921875,0.849609375q-2.20703125,0-4.150390625-0.849609375t-3.3984375-2.32421875t-2.294921875-3.49609375t-0.83984375-4.365234375q0-2.3828125,0.83984375-4.4140625t2.294921875-3.505859375t3.3984375-2.314453125t4.150390625-0.83984375q2.2265625,0,4.169921875,0.791015625t3.388671875,2.24609375t2.28515625,3.49609375t0.83984375,4.541015625z M348.984375,37.32421875q0-1.2890625-0.419921875-2.333984375t-1.142578125-1.796875t-1.689453125-1.15234375t-2.060546875-0.400390625t-2.060546875,0.400390625t-1.6796875,1.15234375t-1.123046875,1.796875t-0.41015625,2.333984375q0,1.2109375,0.41015625,2.24609375t1.123046875,1.796875t1.6796875,1.201171875t2.060546875,0.439453125t2.060546875-0.41015625t1.689453125-1.15234375t1.142578125-1.796875t0.419921875-2.32421875z M362.63671875,47.96875l-5.33203125,0l0-20.91796875l1.2890625,0l1.7578125,2.03125q1.2890625-1.171875,2.919921875-1.806640625t3.408203125-0.634765625q1.9140625,0,3.61328125,0.732421875t2.96875,2.01171875t2.001953125,2.98828125t0.732421875,3.642578125l0,11.953125l-5.33203125,0l0-11.953125q0-0.8203125-0.3125-1.552734375t-0.859375-1.279296875t-1.26953125-0.859375t-1.54296875-0.3125q-0.83984375,0-1.58203125,0.3125t-1.2890625,0.859375t-0.859375,1.279296875t-0.3125,1.552734375l0,11.953125z M391.26953125,47.96875l-12.1875,0l0-5.3125l12.1875,0q0.546875,0,0.9375-0.390625t0.390625-0.9375q0-0.56640625-0.390625-0.7421875t-0.9375-0.17578125l-5.546875,0q-1.38671875,0-2.59765625-0.52734375t-2.109375-1.435546875t-1.416015625-2.119140625t-0.517578125-2.59765625t0.517578125-2.59765625t1.416015625-2.109375t2.109375-1.416015625t2.59765625-0.517578125l10.80078125,0l0,5.3125l-10.80078125,0q-0.546875,0-0.9375,0.390625t-0.390625,0.9375q0,0.56640625,0.390625,0.966796875t0.9375,0.400390625l5.546875,0q1.3671875,0,2.578125,0.458984375t2.109375,1.279296875t1.42578125,1.97265625t0.52734375,2.51953125q0,1.38671875-0.52734375,2.587890625t-1.42578125,2.109375t-2.109375,1.42578125t-2.578125,0.517578125z"/></g></svg>